# xmcd
#
# Track frame offsets: 
#        182
#        2292
#        14840
#        27617
#        39847
#        51200
#        62500
#        81752
#        95022
#        108882
#        122910
#        132787
#        141010
#        156170
#        170205
#
# Disc length: 2468 seconds
#
# Revision: 3
# Processed by: cddbd v1.5.2PL0 Copyright (c) Steve Scherf et al.
# Submitted via: ExactAudioCopyFreeDBPlugin 1.0
#
DISCID=c309a20f
DTITLE=Bing Crosby and Rosemary Clooney - Wonderful Together
DYEAR=1900
DGENRE=Oldies
TTITLE0=Introduction
TTITLE1=Isn't This a Lovely Day
TTITLE2=Anything You Can Do
TTITLE3=They Say It's Wonderful
TTITLE4=Ain't We Got Fun?
TTITLE5=Let's Take a Walk Around the Block
TTITLE6=Summertime
TTITLE7=Let's Call the Whole Thing Off
TTITLE8=People Will Say We're in Love
TTITLE9=Lover
TTITLE10=Hey, Look Me Over
TTITLE11=Let's Put Out the Lights and Go to Sleep
TTITLE12=They Can't Take That Away From Me
TTITLE13=Everytime I See You I'm in Love Again
TTITLE14=Paris Medley
EXTD=
EXTT0=
EXTT1=
EXTT2=
EXTT3=
EXTT4=
EXTT5=
EXTT6=
EXTT7=
EXTT8=
EXTT9=
EXTT10=
EXTT11=
EXTT12=
EXTT13=
EXTT14=
PLAYORDER=
